<svg
   xmlns:dc="http://purl.org/dc/elements/1.1/"
   xmlns:cc="http://creativecommons.org/ns#"
   xmlns:rdf="http://www.w3.org/1999/02/22-rdf-syntax-ns#"
   xmlns:svg="http://www.w3.org/2000/svg"
   xmlns="http://www.w3.org/2000/svg"
   xmlns:sodipodi="http://sodipodi.sourceforge.net/DTD/sodipodi-0.dtd"
   xmlns:inkscape="http://www.inkscape.org/namespaces/inkscape"
   width="210mm"
   height="297mm"
   viewBox="0 0 210 297"
   version="1.1"
   id="svg8"
   inkscape:version="0.92.4 (5da689c313, 2019-01-14)"
   sodipodi:docname="sun.svg">
  <g
     inkscape:label="Layer 1"
     inkscape:groupmode="layer"
     id="layer1">
    <path
       style="opacity:0.73000004;fill:#000000;fill-opacity:1;stroke-width:0.26458332"
       id="path3646"
       d="m 81.757443,161.90207 5.198653,-16.75966 -12.761604,12.04382 8.797685,-15.18265 -15.121645,8.90213 11.955565,-12.84432 -16.723423,5.31405 14.513944,-9.86192 -17.48662,1.45951 16.344532,-6.38501 -17.372964,-2.46822 17.355538,-2.58792 -16.388155,-6.27219 17.496264,1.33893 -14.581576,-9.76164 16.759655,5.19865 -12.043815,-12.7616 15.182646,8.79768 -8.902128,-15.121642 12.844317,11.955562 -5.31405,-16.72342 9.861919,14.51394 -1.459504,-17.486616 6.385003,16.344536 2.468228,-17.372967 2.587922,17.355537 6.27219,-16.388155 -1.33894,17.496265 9.76164,-14.581576 -5.19865,16.759656 12.76161,-12.043817 -8.79769,15.182647 15.12165,-8.90213 -11.95557,12.84432 16.72342,-5.31405 -14.51394,9.86192 17.48662,-1.45951 -16.34453,6.38501 17.37296,2.46822 -17.35554,2.58792 16.38816,6.27219 -17.49627,-1.33893 14.58158,9.76164 -16.75965,-5.19865 12.04381,12.7616 -15.18265,-8.79768 8.90213,15.12164 -12.84431,-11.95556 5.31405,16.72342 -9.86192,-14.51394 1.4595,17.48662 -6.385,-16.34454 -2.468231,17.37297 -2.587917,-17.35554 -6.272193,16.38816 1.338938,-17.49627 z"
      />
    <path
       style="opacity:0.73000004;fill:#de8787;fill-opacity:1;stroke-width:0.26458332"
       id="path96117"
       d="m 161.16352,181.00503 -29.88085,-19.58341 16.40564,31.73689 -24.77396,-25.74152 8.93219,34.59178 -18.4248,-30.60886 1.01085,35.71209 -11.15173,-33.94133 -6.961186,35.04165 -3.319484,-35.57185 -14.584152,32.61408 4.679224,-35.41865 -21.475811,28.5511 12.443295,-33.4894 -27.290584,23.05644 19.583409,-29.88086 -31.736893,16.40564 25.741528,-24.77396 -34.591782,8.93219 30.608859,-18.42479 -35.712093,1.01085 33.941334,-11.15174 -35.041652,-6.96118 35.57185,-3.31949 -32.614076,-14.58415 35.418643,4.67922 L 29.390196,88.409963 62.879594,100.85326 39.823154,73.562674 69.70401,93.146083 53.298369,61.40919 78.072331,87.150718 69.140137,52.558936 l 18.424798,30.608859 -1.01085,-35.712093 11.151738,33.941334 6.961187,-35.041651 3.31948,35.571849 14.58415,-32.614076 -4.67922,35.418643 21.47581,-28.551093 -12.4433,33.489398 27.29059,-23.05644 -19.58341,29.880856 31.73689,-16.405641 -25.74153,24.773959 34.59178,-8.932191 -30.60885,18.424801 35.71209,-1.01085 -33.94134,11.15173 35.04166,6.96119 -35.57185,3.31948 32.61407,14.58415 -35.41864,-4.67922 28.55109,21.47581 -33.4894,-12.4433 z"
      />
    <path
       style="opacity:0.73000004;fill:#000000;fill-opacity:1;stroke-width:0.26458332"
       id="path96119"
       d="m 107.97689,139.31098 -4.69667,-5.26989 1.50189,6.89745 -3.40626,-6.18287 -0.0706,7.05872 -1.945036,-6.78582 -1.639537,6.86603 -0.386287,-7.04849 -3.126265,6.32906 1.191834,-6.95773 -4.456229,5.47471 2.710192,-6.51808 -5.56274,4.34585 4.09265,-5.75158 -6.390311,2.99906 5.269885,-4.69668 -6.897446,1.50189 6.182866,-3.40626 -7.058714,-0.0706 6.785813,-1.94504 -6.866029,-1.63954 7.04849,-0.38629 -6.329051,-3.12626 6.957726,1.19183 -5.474709,-4.45623 6.518074,2.7102 -4.345843,-5.56274 5.751577,4.09265 -2.999057,-6.39031 4.696673,5.26988 -1.501887,-6.89745 3.406259,6.18287 0.07059,-7.05871 1.945039,6.78581 1.639539,-6.86603 0.38629,7.04849 3.12626,-6.32905 -1.19183,6.95773 4.45623,-5.47471 -2.7102,6.51807 5.56274,-4.34584 -4.09265,5.75157 6.39031,-2.99905 -5.26988,4.69667 6.89745,-1.50189 -6.18287,3.40626 7.05871,0.0706 -6.78581,1.94504 6.86603,1.63953 -7.04849,0.38629 6.32905,3.12626 -6.95773,-1.19183 5.47471,4.45623 -6.51807,-2.71019 4.34584,5.56274 -5.75158,-4.09265 z"
      />
  </g>
</svg>
